<?xml version="1.0" standalone="no"?>
<!DOCTYPE svg PUBLIC "-//W3C//DTD SVG 20010904//EN"
 "http://www.w3.org/TR/2001/REC-SVG-20010904/DTD/svg10.dtd">
<svg version="1.0" xmlns="http://www.w3.org/2000/svg"
 width="300.000000pt" height="300.000000pt" viewBox="0 0 300.000000 300.000000"
 preserveAspectRatio="xMidYMid meet">
<metadata>
Created by potrace 1.10, written by Peter Selinger 2001-2011
</metadata>
<g transform="translate(0.000000,300.000000) scale(0.100000,-0.100000)"
fill="#000000" stroke="none">
<path d="M1665 2822 l-340 -147 -3 -264 c-2 -204 -5 -262 -15 -258 -6 3 -75
33 -151 66 -77 34 -144 61 -150 61 -6 0 -171 -69 -366 -153 l-355 -153 -5
-864 -5 -864 -106 3 c-136 3 -139 1 -139 -113 0 -50 5 -87 12 -94 17 -17 2899
-17 2916 0 8 8 12 45 12 100 0 109 -2 111 -143 107 l-102 -3 -5 1214 -5 1215
-28 13 c-77 37 -661 282 -671 281 -6 0 -164 -66 -351 -147z m375 82 c0 -9 -7
-14 -17 -12 -25 5 -28 28 -4 28 12 0 21 -6 21 -16z m-52 -1341 l-3 -1316 -68
-1 -67 -1 0 282 0 282 23 3 c24 3 37 42 19 60 -10 10 -363 -19 -400 -33 -31
-12 -27 -53 6 -57 l22 -3 0 -267 0 -267 -65 0 -65 0 2 1193 3 1192 290 125
c160 68 293 124 298 125 4 0 6 -592 5 -1317z m377 1188 l290 -125 -2 -1188 -3
-1189 -295 0 -295 0 -3 1316 c-1 873 1 1315 8 1313 6 -2 141 -59 300 -127z
m-1335 -529 c0 -19 -23 -32 -37 -21 -20 17 -15 29 12 29 14 0 25 -4 25 -8z
m-58 -1004 l-2 -973 -73 1 -72 1 -3 227 c-2 216 -2 226 17 226 29 0 45 25 31
49 -6 12 -12 21 -13 21 -1 0 -92 -9 -201 -20 -196 -18 -215 -24 -216 -57 0
-15 35 -35 44 -26 3 3 6 -90 6 -208 l0 -214 -70 1 -70 1 -1 839 0 839 303 132
c167 72 308 132 313 132 7 1 9 -328 7 -971z m217 912 l131 -55 0 -915 0 -915
-140 0 -140 0 0 973 c0 600 4 972 9 970 6 -1 68 -28 140 -58z m591 -1607 l0
-278 -95 0 -95 0 2 270 3 270 65 6 c36 3 77 6 93 7 l27 2 0 -277z m-1027 -54
l-2 -221 -95 -2 -96 -1 0 212 0 212 43 5 c70 10 101 13 127 15 l25 1 -2 -221z
m2147 -329 l0 -40 -1400 0 -1400 0 0 40 0 40 1400 0 1400 0 0 -40z"/>
<path d="M1799 2641 l-84 -37 -3 -146 c-3 -172 -4 -171 100 -133 118 43 108
25 108 190 0 180 1 180 -121 126z m51 -140 l0 -89 -31 -11 c-18 -6 -35 -11
-38 -11 -3 0 -5 38 -3 83 3 83 4 84 35 100 18 9 33 16 35 16 1 1 2 -39 2 -88z"/>
<path d="M1535 2529 c-38 -16 -73 -35 -77 -42 -5 -7 -7 -68 -6 -136 4 -153 6
-156 105 -122 37 13 74 28 81 34 17 13 17 268 0 285 -17 17 -24 15 -103 -19z
m45 -137 c0 -75 -1 -79 -25 -90 -14 -7 -28 -12 -30 -12 -3 0 -5 35 -5 78 0 72
2 80 23 90 12 6 25 11 30 11 4 1 7 -34 7 -77z"/>
<path d="M1790 2241 l-75 -27 -3 -150 c-3 -187 -5 -184 105 -153 43 12 84 27
91 32 13 10 18 279 6 311 -8 22 -37 19 -124 -13z m60 -149 l0 -99 -34 -10
c-19 -6 -36 -9 -38 -8 -2 2 -2 46 0 98 l3 94 32 11 c18 5 33 10 35 11 1 1 2
-43 2 -97z"/>
<path d="M1536 2154 c-39 -13 -73 -30 -78 -36 -4 -7 -8 -72 -8 -144 0 -167 0
-166 113 -133 l82 24 3 144 c3 141 -3 172 -32 170 -6 0 -42 -11 -80 -25z m37
-234 c-4 -4 -18 -11 -30 -15 -23 -6 -23 -5 -23 82 0 88 0 89 28 99 l27 10 3
-85 c2 -46 -1 -87 -5 -91z"/>
<path d="M1803 1830 c-39 -10 -76 -21 -82 -25 -16 -10 -15 -299 2 -313 14 -11
163 13 185 30 17 14 17 299 0 316 -14 14 -14 14 -105 -8z m47 -160 c0 -89 -2
-100 -17 -100 -10 0 -27 -3 -38 -6 -19 -5 -20 -1 -15 93 5 102 7 105 63 112 4
1 7 -44 7 -99z"/>
<path d="M1530 1764 c-30 -9 -61 -20 -67 -26 -14 -11 -19 -250 -7 -282 4 -9
18 -16 35 -16 40 0 132 20 147 33 9 7 12 47 10 156 l-3 146 -30 2 c-16 1 -55
-5 -85 -13z m50 -154 c0 -71 -3 -90 -14 -90 -8 0 -21 -3 -30 -6 -14 -5 -16 6
-16 84 0 78 2 91 18 95 41 11 42 10 42 -83z"/>
<path d="M1802 1415 c-40 -6 -77 -16 -83 -22 -6 -6 -8 -70 -7 -159 l3 -149 94
2 c65 1 97 6 102 15 5 7 9 78 9 159 0 142 -6 171 -34 168 -6 -1 -44 -7 -84
-14z m48 -165 l0 -100 -37 0 -38 0 3 94 c3 99 5 102 55 105 15 1 17 -10 17
-99z"/>
<path d="M1542 1375 c-41 -7 -78 -18 -83 -26 -5 -8 -9 -73 -9 -145 0 -100 3
-134 14 -143 16 -13 154 -4 174 12 8 7 12 50 12 153 0 170 2 166 -108 149z
m38 -155 c0 -71 -3 -90 -14 -90 -8 0 -21 -3 -30 -6 -14 -5 -16 6 -16 84 0 78
2 91 18 95 41 11 42 10 42 -83z"/>
<path d="M2156 2645 c-3 -9 -6 -522 -6 -1140 0 -1202 -2 -1153 47 -1143 17 3
18 54 18 1148 l0 1145 -26 3 c-17 2 -29 -3 -33 -13z"/>
<path d="M2325 2578 c-3 -7 -4 -508 -3 -1113 l3 -1100 30 0 30 0 0 1110 0
1110 -28 3 c-16 2 -29 -2 -32 -10z"/>
<path d="M2497 2513 c-4 -3 -7 -487 -7 -1075 0 -980 1 -1069 16 -1075 9 -3 24
-2 33 4 15 9 16 107 19 1068 1 773 -1 1061 -9 1071 -12 15 -41 19 -52 7z"/>
<path d="M705 1964 c-33 -15 -63 -31 -67 -38 -4 -6 -8 -59 -8 -118 0 -143 4
-147 108 -109 l77 28 0 129 0 129 -25 2 c-14 2 -52 -9 -85 -23z m43 -189 c-2
-1 -13 -6 -25 -9 -22 -7 -23 -5 -23 57 0 57 3 65 23 74 21 10 22 8 25 -55 2
-35 2 -66 0 -67z"/>
<path d="M490 1873 c-30 -13 -58 -30 -62 -36 -14 -22 -9 -202 6 -222 14 -19
15 -19 68 -1 100 35 98 32 98 154 0 144 -8 152 -110 105z m40 -123 c0 -53 -2
-60 -20 -60 -17 0 -20 7 -20 53 0 56 4 67 27 67 9 0 13 -17 13 -60z"/>
<path d="M705 1638 c-33 -12 -63 -26 -67 -32 -4 -6 -8 -63 -8 -127 0 -155 -2
-153 138 -113 l53 15 -3 137 -3 137 -25 2 c-14 1 -52 -8 -85 -19z m33 -209
c-32 -21 -38 -10 -38 65 0 70 1 75 23 78 21 3 22 -1 25 -66 2 -49 -1 -72 -10
-77z"/>
<path d="M491 1569 c-30 -10 -58 -25 -63 -32 -14 -21 -9 -211 5 -231 13 -17
17 -18 82 -3 37 9 72 22 76 29 5 7 9 63 9 124 0 144 -5 150 -109 113z m39
-129 c0 -63 -2 -70 -20 -70 -18 0 -20 7 -20 64 0 60 5 72 33 75 4 1 7 -30 7
-69z"/>
<path d="M700 1298 c-25 -5 -51 -15 -57 -20 -20 -16 -18 -242 2 -258 19 -15
149 -4 165 15 7 8 10 60 8 141 l-3 129 -35 2 c-19 1 -55 -3 -80 -9z m38 -209
c-32 -21 -38 -10 -38 65 0 70 1 75 23 78 21 3 22 -1 25 -66 2 -49 -1 -72 -10
-77z"/>
<path d="M496 1255 c-32 -7 -62 -19 -67 -26 -13 -20 -11 -207 2 -231 10 -18
17 -20 77 -13 37 4 73 12 80 17 17 14 17 239 0 256 -14 14 -15 14 -92 -3z m32
-132 c-2 -55 -6 -68 -20 -71 -16 -3 -18 5 -18 61 0 66 4 77 27 77 11 0 13 -15
11 -67z"/>
</g>
</svg>
